<svg width="16" height="16" viewBox="0 0 16 16" fill="none" xmlns="http://www.w3.org/2000/svg">
<path d="M10.3462 10.2115C10.7391 10.3425 11.1639 10.1301 11.2948 9.73717C11.4258 9.34421 11.2135 8.91947 10.8205 8.78849L10.3462 10.2115ZM8.33333 8.75H7.58333C7.58333 9.07282 7.7899 9.35943 8.09616 9.46151L8.33333 8.75ZM9.08333 5.61391C9.08333 5.1997 8.74754 4.86391 8.33333 4.86391C7.91911 4.86391 7.58333 5.1997 7.58333 5.61391H9.08333ZM10.8205 8.78849L8.5705 8.03849L8.09616 9.46151L10.3462 10.2115L10.8205 8.78849ZM9.08333 8.75V5.61391H7.58333V8.75H9.08333ZM13.5833 8C13.5833 10.8995 11.2328 13.25 8.33333 13.25V14.75C12.0613 14.75 15.0833 11.7279 15.0833 8H13.5833ZM8.33333 13.25C5.43383 13.25 3.08333 10.8995 3.08333 8H1.58333C1.58333 11.7279 4.60541 14.75 8.33333 14.75V13.25ZM3.08333 8C3.08333 5.1005 5.43383 2.75 8.33333 2.75V1.25C4.60541 1.25 1.58333 4.27208 1.58333 8H3.08333ZM8.33333 2.75C11.2328 2.75 13.5833 5.1005 13.5833 8H15.0833C15.0833 4.27208 12.0613 1.25 8.33333 1.25V2.75Z" fill="white"/>
</svg>
