<svg width="28" height="28" viewBox="0 0 28 28" fill="none" xmlns="http://www.w3.org/2000/svg">
<path d="M3.5 10.9854C3.5 10.5544 3.71935 10.1501 4.08867 9.90037L13.1887 3.74637C13.6744 3.41788 14.3256 3.41788 14.8113 3.74637L23.9113 9.90037C24.2806 10.1501 24.5 10.5544 24.5 10.9854V22.5029C24.5 23.6059 23.5598 24.5 22.4 24.5H17.5V16C17.5 15.4477 17.0523 15 16.5 15H11.5C10.9477 15 10.5 15.4477 10.5 16V24.5H5.6C4.4402 24.5 3.5 23.6059 3.5 22.5029V10.9854Z" fill="#011638"/>
<path d="M10.5 24.5V16.5116C10.5 15.7763 11.1268 15.1802 11.9 15.1802H16.1C16.8732 15.1802 17.5 15.7763 17.5 16.5116V24.5M10.5 24.5H5.6C4.4402 24.5 3.5 23.6059 3.5 22.5029V10.9854C3.5 10.5544 3.71935 10.1501 4.08867 9.90037L13.1887 3.74637C13.6744 3.41788 14.3256 3.41788 14.8113 3.74637L23.9113 9.90037C24.2806 10.1501 24.5 10.5544 24.5 10.9854V22.5029C24.5 23.6059 23.5598 24.5 22.4 24.5H17.5M10.5 24.5V16C10.5 15.4477 10.9477 15 11.5 15H16.5C17.0523 15 17.5 15.4477 17.5 16V24.5" stroke="#011638" stroke-width="2" stroke-linejoin="round"/>
</svg>
