<svg width="20" height="20" viewBox="0 0 20 20" fill="none" xmlns="http://www.w3.org/2000/svg">
<path d="M17.0167 4.81665C16.5986 4.39713 16.1018 4.06427 15.5549 3.83714C15.0079 3.61002 14.4214 3.4931 13.8292 3.4931C13.2369 3.4931 12.6505 3.61002 12.1035 3.83714C11.5565 4.06427 11.0597 4.39713 10.6417 4.81665L10 5.46665L9.35834 4.81665C8.94028 4.39713 8.44351 4.06427 7.89653 3.83714C7.34955 3.61002 6.76311 3.4931 6.17084 3.4931C5.57858 3.4931 4.99214 3.61002 4.44516 3.83714C3.89818 4.06427 3.40141 4.39713 2.98334 4.81665C1.21668 6.58332 1.10834 9.56665 3.33334 11.8333L10 18.5L16.6667 11.8333C18.8917 9.56665 18.7833 6.58332 17.0167 4.81665Z" stroke="#AED42E" stroke-width="2" stroke-linecap="round" stroke-linejoin="round"/>
</svg>
