<svg width="29" height="28" viewBox="0 0 29 28" fill="none" xmlns="http://www.w3.org/2000/svg">
<path fill-rule="evenodd" clip-rule="evenodd" d="M14.3336 3.80956C10.045 3.80956 6.56836 7.28616 6.56836 11.5748C6.56836 12.7188 7.00687 13.8193 7.75683 14.9354C8.51193 16.0591 9.53519 17.1302 10.6225 18.2174C10.7776 18.3725 10.9346 18.5284 11.0923 18.6851C12.0108 19.5975 12.9533 20.5337 13.6889 21.4653C13.9072 21.7418 14.1164 22.0287 14.3069 22.3258C14.498 22.0348 14.7073 21.7543 14.9255 21.4843C15.6532 20.5839 16.5831 19.6797 17.4914 18.7966C17.6677 18.6252 17.8432 18.4545 18.0162 18.2849C19.1107 17.2117 20.1401 16.1483 20.8994 15.0189C21.6522 13.8991 22.0988 12.773 22.0988 11.5748C22.0988 7.28616 18.6222 3.80956 14.3336 3.80956ZM4.56836 11.5748C4.56836 6.18159 8.9404 1.80956 14.3336 1.80956C19.7268 1.80956 24.0988 6.18159 24.0988 11.5748C24.0988 13.2982 23.4498 14.81 22.5592 16.1347C21.6751 17.4498 20.5132 18.6376 19.4164 19.7129C19.2282 19.8975 19.0426 20.0781 18.8603 20.2555C17.9514 21.1401 17.1262 21.9431 16.4811 22.7414C15.7033 23.7038 15.3336 24.4891 15.3336 25.1905C15.3335 25.7428 14.8858 26.1904 14.3336 26.1904H14.2625C13.7102 26.1904 13.2625 25.7427 13.2625 25.1904C13.2625 24.4834 12.892 23.6835 12.1192 22.7046C11.465 21.8761 10.6229 21.0389 9.69887 20.1203C9.53767 19.96 9.37398 19.7973 9.20836 19.6317C8.12212 18.5456 6.97185 17.3531 6.0968 16.0509C5.21662 14.741 4.56836 13.2533 4.56836 11.5748ZM14.3339 9.40973C13.3398 9.40973 12.5339 10.2156 12.5339 11.2097C12.5339 12.2038 13.3398 13.0097 14.3339 13.0097C15.328 13.0097 16.1339 12.2038 16.1339 11.2097C16.1339 10.2156 15.328 9.40973 14.3339 9.40973ZM10.5339 11.2097C10.5339 9.11105 12.2353 7.40973 14.3339 7.40973C16.4326 7.40973 18.1339 9.11105 18.1339 11.2097C18.1339 13.3084 16.4326 15.0097 14.3339 15.0097C12.2353 15.0097 10.5339 13.3084 10.5339 11.2097Z" fill="#011638" fill-opacity="0.3"/>
</svg>
