<svg width="30" height="40" viewBox="0 0 30 40" fill="none" xmlns="http://www.w3.org/2000/svg">
<path d="M15 0.384613C11.0218 0.384613 7.20644 1.83124 4.3934 4.40626C1.58035 6.98128 0 10.4738 0 14.1154C0 23.0736 11.3506 35.7425 14.3043 38.8876C14.6859 39.294 15.3141 39.294 15.6957 38.8876C18.6494 35.7425 30 23.0736 30 14.1154C30 10.4738 28.4196 6.98128 25.6066 4.40626C22.7936 1.83124 18.9782 0.384613 15 0.384613Z" fill="#F77349"/>
<path d="M17.6667 11.75V17.2917C17.6667 17.7289 18.0211 18.0833 18.4583 18.0833H20.0417V23.625C20.0417 24.0622 20.3961 24.4167 20.8333 24.4167Lnan nanL20.8333 24.4167C21.2706 24.4167 21.625 24.0622 21.625 23.625V8.58334C19.44 8.58334 17.6667 10.3567 17.6667 11.75ZM13.7083 14.125H12.125V9.37501C12.125 8.93778 11.7706 8.58334 11.3333 8.58334Lnan nanL11.3333 8.58334C10.8961 8.58334 10.5417 8.93778 10.5417 9.37501V14.125H8.95833V9.37501C8.95833 8.93778 8.60389 8.58334 8.16667 8.58334Lnan nanL8.16667 8.58334C7.72944 8.58334 7.375 8.93778 7.375 9.37501V14.125C7.375 15.8746 8.79208 17.2917 10.5417 17.2917V23.625C10.5417 24.0622 10.8961 24.4167 11.3333 24.4167Lnan nanL11.3333 24.4167C11.7706 24.4167 12.125 24.0622 12.125 23.625V17.2917C13.8746 17.2917 15.2917 15.8746 15.2917 14.125V9.37501C15.2917 8.93778 14.9372 8.58334 14.5 8.58334Lnan nanL14.5 8.58334C14.0628 8.58334 13.7083 8.93778 13.7083 9.37501V14.125Z" fill="white"/>
</svg>
