<svg width="32" height="40" viewBox="0 0 32 40" fill="none" xmlns="http://www.w3.org/2000/svg">
<path d="M16 1.5C12.1951 1.5 8.52218 2.88239 5.7948 5.37899C3.06298 7.87966 1.5 11.3012 1.5 14.9C1.5 17.1106 2.18615 19.4437 3.17231 21.679C4.16481 23.9286 5.50343 26.1729 6.905 28.2309C9.70768 32.3464 12.8432 35.8347 14.2123 37.2986C15.1859 38.3397 16.8141 38.3397 17.7877 37.2986C19.1568 35.8347 22.2923 32.3464 25.095 28.2309C26.4966 26.1729 27.8352 23.9286 28.8277 21.679C29.8138 19.4437 30.5 17.1106 30.5 14.9C30.5 11.3012 28.937 7.87966 26.2052 5.37899C23.4778 2.88239 19.8049 1.5 16 1.5Z" fill="#DDFC74" stroke="white" stroke-width="3"/>
</svg>
