<svg width="28" height="28" viewBox="0 0 28 28" fill="none" xmlns="http://www.w3.org/2000/svg">
<path fill-rule="evenodd" clip-rule="evenodd" d="M6.9998 2.8C4.68021 2.8 2.7998 4.68041 2.7998 7V21C2.7998 22.202 3.30474 23.2861 4.11407 24.0517C4.56111 23.8054 5.8009 22.6947 7.01524 21.6068C7.91626 20.7996 8.8033 20.005 9.34208 19.5853C9.83069 19.2047 10.43 19 11.0494 19H16.9377C17.5642 19 18.1695 19.2134 18.674 19.585C20.3568 20.8247 23.3244 22.8785 24.4093 23.4532C24.9067 22.763 25.1998 21.9157 25.1998 21V7C25.1998 4.68041 23.3194 2.8 20.9998 2.8H6.9998ZM19 11C19 8.24829 16.7518 6 14 6C11.2483 6 9 8.24829 9 11C9 13.7517 11.2483 16 14 16C16.7517 16 19 13.7517 19 11Z" fill="#011638"/>
<path d="M4.0001 24C4.40185 23.5501 8.00063 20.5306 9.34218 19.4856C9.83079 19.105 10.4301 18.9003 11.0495 18.9003H16.9378C17.5643 18.9003 18.1696 19.1137 18.6741 19.4853C19.4132 20.0298 20.1325 20.515 20.8519 21.0003C21.8171 21.6514 22.7823 22.3025 23.7952 23.0967M2.7998 7C2.7998 4.68041 4.68021 2.8 6.9998 2.8H20.9998C23.3194 2.8 25.1998 4.68041 25.1998 7V21C25.1998 21.9157 24.9067 22.763 24.4093 23.4532C23.3244 22.8785 20.3568 20.8247 18.674 19.585C18.1695 19.2134 17.5642 19 16.9377 19H11.0494C10.43 19 9.83069 19.2047 9.34208 19.5853C8.8033 20.005 7.91626 20.7996 7.01524 21.6068C5.8009 22.6947 4.56111 23.8054 4.11407 24.0517C3.30474 23.2861 2.7998 22.202 2.7998 21V7ZM14 6C16.7518 6 19 8.24829 19 11C19 13.7517 16.7517 16 14 16C11.2483 16 9 13.7517 9 11C9 8.24829 11.2483 6 14 6Z" stroke="#011638"/>
</svg>
