<svg width="28" height="28" viewBox="0 0 28 28" fill="none" xmlns="http://www.w3.org/2000/svg">
<path d="M4.89999 23.1003C5.30174 22.6503 8.00081 20.5306 9.34237 19.4856C9.83097 19.105 10.4303 18.9003 11.0497 18.9003C12.5473 18.9003 15.4331 18.9003 16.9379 18.9003C17.5645 18.9003 18.1698 19.1137 18.6743 19.4853C20.4066 20.7615 22.0305 21.7123 23.8 23.1003M6.99999 25.2H21C23.3196 25.2 25.2 23.3196 25.2 21V6.99999C25.2 4.68039 23.3196 2.79999 21 2.79999H6.99999C4.68039 2.79999 2.79999 4.68039 2.79999 6.99999V21C2.79999 23.3196 4.68039 25.2 6.99999 25.2ZM18.0116 10.8174C18.0116 8.68061 16.2078 6.93475 14 6.93475C11.7922 6.93475 9.98835 8.68061 9.98835 10.8174C9.98835 12.9541 11.7922 14.7 14 14.7C16.2078 14.7 18.0116 12.9541 18.0116 10.8174Z" stroke="#011638" stroke-opacity="0.3" stroke-width="2"/>
</svg>
